<svg xmlns="http://www.w3.org/2000/svg" viewBox="0 0 1490.01 1490.01"><defs><style>.cls-1{fill:#66400f;}.cls-2{fill:#e8e1d6;}</style></defs><g id="Layer_2" data-name="Layer 2"><g id="Isolation_Mode" data-name="Isolation Mode"><rect class="cls-1" width="1490.01" height="1490.01" rx="200"/><path class="cls-2" d="M1131.21,879.29C1131.21,1074.88,994,1207,835.27,1207c-71.13,0-125.75-24.14-166.39-67.31v27.93c0,20.32-10.16,28-29.2,28l-163.85-1.27c-16.51,0-26.67-7.62-26.67-21.6v-3.8c0-30.49,49.54-43.19,49.54-97.81V448.73c0-57.16-58.42-64.78-58.42-96.53v-3.81c0-14,6.35-20.32,29.2-30.48L633.34,241.7c29.2-14,53.33-6.34,53.33,25.4V622.73c35.56-33,87.63-50.81,148.6-50.81C982.6,571.92,1131.21,679.88,1131.21,879.29Zm-185.44,76.2c0-160-54.62-329-156.23-329-58.41,0-102.87,52.07-102.87,128.28V984.7c0,86.36,63.5,167.65,129.56,167.65C898.78,1152.35,945.77,1082.5,945.77,955.49Z"/></g></g></svg>