<svg xmlns="http://www.w3.org/2000/svg" viewBox="0 0 753.71 1060.28"><defs><style>.cls-1{fill:#66400f;}</style></defs><g id="Layer_2" data-name="Layer 2"><g id="Isolation_Mode" data-name="Isolation Mode"><path class="cls-1" d="M753.71,702.82c0,213.37-149.66,357.46-322.84,357.46-77.58,0-137.17-26.33-181.5-73.43v30.47c0,22.17-11.08,30.49-31.85,30.49l-178.75-1.39c-18,0-29.09-8.31-29.09-23.56v-4.15c0-33.25,54-47.1,54-106.68V233.15C63.72,170.79,0,162.48,0,127.85v-4.16c0-15.25,6.92-22.17,31.85-33.25L210.59,7.31C242.45-7.94,268.78.38,268.78,35V423c38.79-36,95.59-55.42,162.09-55.42C591.59,367.53,753.71,485.29,753.71,702.82ZM551.42,786c0-174.57-59.59-358.84-170.42-358.84-63.73,0-112.22,56.8-112.22,139.93V817.81C268.78,912,338,1000.7,410.1,1000.7,500.16,1000.7,551.42,924.5,551.42,786Z"/></g></g></svg>